<svg id="visual" viewBox="0 0 960 540" width="960" height="540" xmlns="http://www.w3.org/2000/svg" xmlns:xlink="http://www.w3.org/1999/xlink" version="1.1"><rect x="0" y="0" width="960" height="540" fill="#121212"></rect><path d="M0 453L22.8 454.8C45.7 456.7 91.3 460.3 137 460.3C182.7 460.3 228.3 456.7 274 440.8C319.7 425 365.3 397 411.2 383.3C457 369.7 503 370.3 548.8 383.7C594.7 397 640.3 423 686 438.2C731.7 453.3 777.3 457.7 823 441.3C868.7 425 914.3 388 937.2 369.5L960 351L960 541L937.2 541C914.3 541 868.7 541 823 541C777.3 541 731.7 541 686 541C640.3 541 594.7 541 548.8 541C503 541 457 541 411.2 541C365.3 541 319.7 541 274 541C228.3 541 182.7 541 137 541C91.3 541 45.7 541 22.8 541L0 541Z" fill="#0d0d0d" stroke-linecap="round" stroke-linejoin="miter"></path></svg>